<?xml version="1.0" encoding="iso-8859-1"?>
<!-- Uploaded to: SVG Repo, www.svgrepo.com, Generator: SVG Repo Mixer Tools -->
<svg version="1.1" id="Layer_1" xmlns="http://www.w3.org/2000/svg" xmlns:xlink="http://www.w3.org/1999/xlink" 
	 viewBox="0 0 512 512" xml:space="preserve">
<path style="fill:#F5F6F6;" d="M221.611,170.95c-8.547-23.275-14.866-52.183-15.821-94.868c5.06-3.992,8.32-10.167,8.32-17.112
	V21.802C214.109,9.761,204.349,0,192.307,0h-49.159c-12.041,0-21.802,9.761-21.802,21.802V58.97c0,6.947,3.26,13.121,8.321,17.113
	c-0.955,42.685-7.275,71.593-15.821,94.868h107.765V170.95z"/>
<path style="fill:#E5E5E5;" d="M205.79,76.082c5.06-3.992,8.32-10.167,8.32-17.112V21.802C214.109,9.761,204.349,0,192.308,0
	h-24.579v170.95h53.882C213.064,147.676,206.745,118.768,205.79,76.082z"/>
<path style="fill:#7A7A7C;" d="M115.193,167.177c-21.247,61.171-58.177,82.608-58.177,200.944v117.033
	c0,14.826,12.019,26.844,26.844,26.844h83.868h83.868c14.826,0,26.844-12.019,26.844-26.844V368.121
	c0-118.337-36.93-139.774-58.177-200.944L115.193,167.177L115.193,167.177z"/>
<path style="fill:#6A6A6B;" d="M167.728,167.177V512h83.868c14.826,0,26.844-12.019,26.844-26.844V368.121
	c0-118.337-36.93-139.774-58.177-200.944L167.728,167.177L167.728,167.177z"/>
<path style="fill:#F6C958;" d="M210.594,129.319l-42.866,33.411l-42.866-33.411c-2.77,15.993-6.548,29.413-10.912,41.347
	l53.777,41.917l53.778-41.917C217.141,158.732,213.364,145.312,210.594,129.319z"/>
<path style="fill:#E5BC53;" d="M210.594,129.319l-42.866,33.411v49.853l53.778-41.917
	C217.141,158.732,213.364,145.312,210.594,129.319z"/>
<path style="fill:#F5F6F6;" d="M57.016,368.121c0,34.539,0,66.976,0,92.281h221.424c0-25.305,0-57.742,0-92.281
	c0-6.089-0.102-11.908-0.292-17.503H57.308C57.119,356.213,57.016,362.032,57.016,368.121z"/>
<path style="fill:#E5E5E5;" d="M167.728,460.403h110.712c0-25.305,0-57.742,0-92.281c0-6.089-0.102-11.908-0.292-17.503H167.728
	V460.403z"/>
<circle style="fill:#F6C958;" cx="167.724" cy="356.218" r="37.325"/>
<path style="fill:#E5BC53;" d="M205.053,356.22c0,20.614-16.711,37.325-37.325,37.325c0-20.429,0-53.956,0-74.648
	C188.342,318.896,205.053,335.606,205.053,356.22z"/>
<rect x="344.253" y="483.784" style="fill:#F5F6F6;" width="90.069" height="28.216"/>
<rect x="389.286" y="483.784" style="fill:#E5E5E5;" width="45.034" height="28.216"/>
<rect x="375.173" y="345.466" style="fill:#F5F6F6;" width="28.216" height="152.42"/>
<rect x="389.286" y="345.466" style="fill:#E5E5E5;" width="14.108" height="152.42"/>
<path style="fill:#F5F6F6;" d="M389.285,349.547c-36.226,0-65.699-29.472-65.699-65.697V150.161h131.396v133.689
	C454.983,320.075,425.51,349.547,389.285,349.547z"/>
<path style="fill:#E5E5E5;" d="M389.285,349.547c0-36.044,0-199.386,0-199.386h65.698v133.689
	C454.983,320.075,425.51,349.547,389.285,349.547z"/>
<path style="fill:#F6C958;" d="M342.397,227.15v56.698c0,25.854,21.033,46.887,46.888,46.887c25.854,0,46.887-21.033,46.887-46.887
	V227.15L342.397,227.15L342.397,227.15z"/>
<path style="fill:#E5BC53;" d="M389.285,227.15c0,0,0,68.395,0,103.585c25.854,0,46.887-21.033,46.887-46.887V227.15L389.285,227.15
	L389.285,227.15z"/>
<g>
	<circle style="fill:#FFFFFF;" cx="365.656" cy="261.053" r="6.34"/>
	<circle style="fill:#FFFFFF;" cx="389.286" cy="307.59" r="6.34"/>
</g>
<g>
	<path style="fill:#FAFAFA;" d="M395.625,307.586c0,3.502-2.838,6.34-6.34,6.34c0-3.346,0-9.927,0-12.68
		C392.786,301.246,395.625,304.086,395.625,307.586z"/>
	<circle style="fill:#FAFAFA;" cx="418.782" cy="277.07" r="6.34"/>
	<circle style="fill:#FAFAFA;" cx="407.652" cy="243.968" r="6.34"/>
</g>
</svg>