<?xml version="1.0" encoding="iso-8859-1"?>

<!DOCTYPE svg PUBLIC "-//W3C//DTD SVG 1.1//EN" "http://www.w3.org/Graphics/SVG/1.1/DTD/svg11.dtd">
<!-- Uploaded to: SVG Repo, www.svgrepo.com, Generator: SVG Repo Mixer Tools -->
<svg height="800px" width="800px" version="1.1" id="_x35_" xmlns="http://www.w3.org/2000/svg" xmlns:xlink="http://www.w3.org/1999/xlink" 
	 viewBox="0 0 512 512"  xml:space="preserve">
<g>
	<path style="fill:#DDAA73;" d="M325.726,219.108c-2.981,1.788-5.962,3.511-8.944,5.233c-2.517,1.523-5.101,2.981-7.684,4.438
		c-5.233,2.915-10.401,5.83-15.634,8.612c-3.379,1.855-6.824,3.643-10.268,5.432c-6.691,3.511-13.448,6.89-20.139,10.202
		c-1.523,0.729-2.981,1.391-4.505,2.12c-2.716,1.325-5.366,2.583-8.016,3.842c-1.788,0.795-3.577,1.656-5.366,2.451
		c-2.981,1.391-5.896,2.716-8.877,3.975c-2.915,1.325-5.896,2.584-8.811,3.842c-2.915,1.259-5.896,2.517-8.811,3.71
		c-6.426,2.65-12.786,5.167-19.079,7.552c-5.167,1.988-10.335,3.842-15.369,5.631c-1.391,0.464-2.783,0.993-4.174,1.457
		c-3.18,1.06-6.227,2.12-9.341,3.114c-1.391,0.464-2.849,0.928-4.24,1.391c-2.385,0.795-4.77,1.524-7.088,2.186
		c-5.432,1.656-10.798,3.18-16.032,4.571c-0.993,0.265-1.921,0.53-2.849,0.795c-0.464,0.066-0.861,0.199-1.259,0.265
		c-0.265,0.132-0.53,0.199-0.795,0.199c-5.896,1.523-11.66,2.848-17.29,4.107c-0.464,0.066-0.994,0.199-1.458,0.265
		c-4.306,0.861-8.479,1.656-12.52,2.385c-0.861,0.132-1.656,0.331-2.451,0.397c-2.65,0.464-5.167,0.861-7.751,1.192
		c-2.848,0.397-5.697,0.795-8.479,1.06c-1.987,0.199-3.909,0.397-5.83,0.53c-1.855,0.133-3.776,0.265-5.631,0.398
		c-1.855,0.066-3.71,0.199-5.499,0.199c-5.962,0.199-11.593,0.066-16.893-0.332c-2.981-0.265-5.896-0.596-8.678-0.993
		c-1.391-0.265-2.783-0.464-4.108-0.729c-0.795-0.133-1.524-0.332-2.319-0.464c-1.06-0.332-2.252-0.53-3.312-0.861
		c-0.066,0-0.133,0-0.265-0.066c-0.596-0.133-1.126-0.331-1.722-0.464c-0.066,0-0.133,0-0.133,0v-0.066
		c-1.126-0.331-2.252-0.662-3.312-1.06c-1.656-0.596-3.246-1.192-4.77-1.921c-0.066,0-0.133-0.066-0.199-0.066
		c-1.524-0.729-2.981-1.458-4.306-2.253c-0.332-0.199-0.663-0.331-0.928-0.53c-0.795-0.53-1.523-0.993-2.319-1.524
		c-1.192-0.795-2.318-1.656-3.378-2.65H14.83c-1.656-1.457-3.18-3.047-4.505-4.703c-4.373-5.366-7.221-11.395-8.811-17.887
		c-7.552-30.54,13.647-71.812,52.269-112.156c4.571-4.77,9.407-9.473,14.442-14.243c4.836-4.571,9.937-9.076,15.237-13.58
		c17.887-15.237,38.092-29.944,59.821-43.392c5.896-3.644,11.924-7.221,18.019-10.666c6.227-3.511,12.521-6.89,18.88-10.136
		c5.764-2.981,11.593-5.763,17.423-8.546c13.183-6.095,26.432-11.726,39.814-16.893c6.824-2.716,13.779-5.3,20.669-7.751
		c6.89-2.517,13.846-4.836,20.802-7.088c22.855-7.42,45.445-13.448,66.975-18.152c7.221-1.524,14.31-2.981,21.265-4.174
		c6.757-1.259,13.448-2.318,19.94-3.246c44.783-6.294,81.881-5.366,103.212,3.312c6.095,2.451,10.931,5.499,14.309,9.275
		c0.464,0.464,0.861,0.993,1.259,1.524c2.186,2.915,3.776,6.161,4.836,9.606C522.943,69.523,448.481,145.906,325.726,219.108z"/>
	<g>
		<path style="fill:#A79D87;" d="M123.077,217.518c-1.325,0.53-2.849,0.463-4.505-0.133c-1.722-0.53-3.511-1.524-5.631-2.915
			c-4.107-2.782-9.142-6.956-15.171-12.255c-11.527-10.07-26.896-24.048-43.988-40.278c4.571-4.77,9.407-9.473,14.442-14.243
			c7.42,7.155,14.574,14.442,21.066,21.597c7.353,8.082,13.912,15.965,19.079,23.054c5.167,7.088,8.943,13.382,11.262,17.887
			c0.596,1.192,1.126,2.186,1.59,3.048c0.397,0.928,0.729,1.723,0.993,2.318C122.812,216.856,123.077,217.518,123.077,217.518z"/>
		<path style="fill:#F2F4D3;" d="M127.052,207.25c0.132,2.849-0.265,5.234-0.994,6.89c-0.662,1.723-1.722,2.849-2.981,3.379
			c0,0-0.265-0.663-0.861-1.921c-0.265-0.596-0.596-1.391-0.993-2.318c-0.464-0.861-0.994-1.855-1.59-3.048
			c-2.319-4.505-6.095-10.798-11.262-17.887c-5.167-7.088-11.726-14.971-19.079-23.054c-6.492-7.155-13.647-14.442-21.066-21.597
			c4.836-4.571,9.937-9.076,15.237-13.58c17.29,17.29,30.606,35.641,37.628,51.341C124.932,193.934,126.853,201.553,127.052,207.25z
			"/>
	</g>
	<g>
		<path style="fill:#A79D87;" d="M226.952,160.082c-1.325,0.53-2.848,0.464-4.571-0.132c-1.656-0.53-3.445-1.59-5.564-2.915
			c-4.174-2.783-9.142-6.956-15.237-12.256c-12.057-10.599-28.42-25.505-46.505-42.729c-4.041-3.842-7.95-7.618-11.792-11.328
			c5.896-3.644,11.924-7.221,18.019-10.666c2.584,2.385,5.233,4.836,7.817,7.287c8.413,8.082,16.628,16.363,24.048,24.511
			c7.353,8.082,13.846,15.965,19.013,23.054c5.233,7.088,9.01,13.382,11.328,17.887c0.596,1.126,1.126,2.186,1.524,3.048
			c0.397,0.927,0.795,1.722,1.06,2.318C226.621,159.42,226.952,160.082,226.952,160.082z"/>
		<path style="fill:#F2F4D3;" d="M230.861,149.814c0.133,2.782-0.265,5.167-0.928,6.889c-0.662,1.723-1.723,2.849-2.981,3.379
			c0,0-0.331-0.662-0.861-1.921c-0.265-0.596-0.663-1.391-1.06-2.318c-0.397-0.861-0.928-1.922-1.524-3.048
			c-2.319-4.505-6.095-10.798-11.328-17.887c-5.167-7.089-11.66-14.972-19.013-23.054c-7.42-8.149-15.634-16.429-24.048-24.511
			c-2.584-2.451-5.233-4.902-7.817-7.287c6.227-3.511,12.521-6.89,18.88-10.136c0.994,0.861,1.988,1.789,2.915,2.716
			c19.344,18.35,34.25,38.423,41.868,55.382C228.807,136.498,230.728,144.117,230.861,149.814z"/>
	</g>
	<g>
		<path style="fill:#A79D87;" d="M308.171,107.548c-1.325,0.464-2.849,0.331-4.505-0.331c-1.656-0.596-3.379-1.723-5.499-3.18
			c-3.975-2.981-8.744-7.42-14.574-12.985c-11.527-11.129-27.228-26.764-44.518-44.849c-0.53-0.596-1.126-1.192-1.656-1.722
			c6.824-2.716,13.779-5.3,20.669-7.751c6.492,7.022,12.852,14.111,18.615,21.066c6.956,8.414,13.117,16.628,17.953,23.915
			c4.836,7.353,8.347,13.779,10.467,18.416c0.53,1.192,0.993,2.186,1.391,3.114c0.331,0.927,0.663,1.722,0.927,2.385
			C307.906,106.886,308.171,107.548,308.171,107.548z"/>
		<path style="fill:#F2F4D3;" d="M312.609,97.479c0,2.849-0.53,5.167-1.259,6.824c-0.795,1.723-1.855,2.782-3.18,3.246
			c0,0-0.265-0.662-0.729-1.921c-0.265-0.663-0.596-1.458-0.927-2.385c-0.397-0.927-0.861-1.921-1.391-3.114
			c-2.12-4.637-5.631-11.063-10.467-18.416c-4.836-7.287-10.997-15.502-17.953-23.915c-5.763-6.956-12.123-14.044-18.615-21.066
			c6.89-2.517,13.846-4.836,20.802-7.088c13.316,15.767,23.385,31.865,28.884,45.777C311.152,84.031,312.742,91.782,312.609,97.479z
			"/>
	</g>
	<g>
		<path style="fill:#A79D87;" d="M395.418,60.248c-1.325,0.332-2.849,0.066-4.505-0.662c-1.59-0.795-3.246-2.054-5.167-3.644
			c-3.776-3.246-8.215-8.016-13.581-13.978c-7.287-8.149-16.297-18.549-26.3-30.474c7.221-1.524,14.31-2.981,21.265-4.174
			c0.198,0.265,0.397,0.596,0.662,0.928c6.293,8.943,11.792,17.556,16.098,25.174c4.24,7.685,7.221,14.375,9.01,19.145
			c0.464,1.192,0.861,2.318,1.192,3.246c0.265,0.928,0.53,1.722,0.729,2.385C395.219,59.52,395.418,60.248,395.418,60.248z"/>
		<path style="fill:#F2F4D3;" d="M400.585,50.51c-0.199,2.782-0.861,5.101-1.789,6.757c-0.861,1.59-1.987,2.583-3.378,2.981
			c0,0-0.199-0.729-0.596-2.054c-0.199-0.662-0.464-1.457-0.729-2.385c-0.331-0.928-0.729-2.054-1.192-3.246
			c-1.789-4.77-4.77-11.461-9.01-19.145c-4.306-7.618-9.804-16.231-16.098-25.174c-0.265-0.331-0.464-0.662-0.662-0.928
			c6.757-1.259,13.448-2.318,19.94-3.246c4.505,8.48,8.016,16.628,10.335,24.114C400.188,36.996,401.115,44.879,400.585,50.51z"/>
	</g>
	<path style="opacity:0.2;fill:#A79D87;" d="M325.721,219.113C196.962,295.901,56.675,333.11,14.823,296.653
		c61.818,13.993,186.542-28.515,301.852-102.87C415.782,129.884,484.517,64.368,504.578,16.64c0.448,0.496,0.865,1.009,1.265,1.537
		C534.855,56.875,458.611,139.859,325.721,219.113z"/>
</g>
</svg>