<?xml version="1.0" encoding="iso-8859-1"?>
<!-- Uploaded to: SVG Repo, www.svgrepo.com, Generator: SVG Repo Mixer Tools -->
<svg height="800px" width="800px" version="1.1" id="Layer_1" xmlns="http://www.w3.org/2000/svg" xmlns:xlink="http://www.w3.org/1999/xlink" 
	 viewBox="0 0 512 512" xml:space="preserve">
<path style="fill:#58595B;" d="M357.87,17.583L343.044,2.758C341.278,0.992,338.883,0,336.384,0H213.301
	c-5.203,0-9.42,4.217-9.42,9.42s4.216,9.42,9.42,9.42h19.049v25.747h18.839V18.839h81.294l12.067,12.066
	c1.839,1.839,4.25,2.758,6.66,2.758c2.41,0,4.822-0.919,6.661-2.759C361.55,27.226,361.55,21.262,357.87,17.583z"/>
<path style="fill:#ED4850;" d="M278.515,107.727L278.515,107.727V64.602c0-11.83-9.589-21.419-21.419-21.419h-30.666
	c-11.83,0-21.419,9.589-21.419,21.419v43.127h-0.275c-15.81,0-28.627,12.817-28.627,28.627v40.524h131.309v-40.524
	C307.417,120.544,294.325,107.727,278.515,107.727z"/>
<path style="fill:#E0273D;" d="M278.806,107.727h-0.275V64.602c0-11.83-9.589-21.419-21.419-21.419h-25.177
	c11.83,0,21.419,9.589,21.419,21.419v43.127h0.275c15.81,0,28.627,12.817,28.627,28.627v40.524h25.177v-40.524
	C307.433,120.544,294.616,107.727,278.806,107.727z"/>
<circle style="fill:#F2BA43;" cx="353.751" cy="57.451" r="9.42"/>
<path style="fill:#E6E7E8;" d="M300.652,512H182.887c-18.809,0-34.057-15.248-34.057-34.057V206.332
	c0-18.809,15.248-34.057,34.057-34.057h117.765c18.809,0,34.057,15.248,34.057,34.057v271.611
	C334.709,496.753,319.462,512,300.652,512z"/>
<path style="fill:#D1D3D4;" d="M300.652,172.274h-37.888c18.81,0,34.057,15.248,34.057,34.057v271.611
	c0,18.809-15.248,34.057-34.057,34.057h37.888c18.81,0,34.057-15.248,34.057-34.057V206.332
	C334.709,187.521,319.462,172.274,300.652,172.274z"/>
<circle style="fill:#F2BA43;" cx="241.771" cy="342.132" r="49.573"/>
</svg>