<!DOCTYPE svg PUBLIC "-//W3C//DTD SVG 1.1//EN" "http://www.w3.org/Graphics/SVG/1.1/DTD/svg11.dtd">
<!-- Uploaded to: SVG Repo, www.svgrepo.com, Transformed by: SVG Repo Mixer Tools -->
<svg fill="#000000" width="64px" height="64px" viewBox="0 0 24 24" id="verified" data-name="Line Color" xmlns="http://www.w3.org/2000/svg" class="icon line-color">
<g id="SVGRepo_bgCarrier" stroke-width="0"/>
<g id="SVGRepo_tracerCarrier" stroke-linecap="round" stroke-linejoin="round"/>
<g id="SVGRepo_iconCarrier">
<polyline id="secondary" points="8 12 11 15 16 10" style="fill: none; stroke: #2ca9bc; stroke-linecap: round; stroke-linejoin: round; stroke-width: 2;"/>
<path id="primary" d="M21.37,12c0,1-.86,1.79-1.14,2.67s-.1,2.08-.65,2.83-1.73.94-2.5,1.49-1.28,1.62-2.18,1.92S13,20.65,12,20.65s-2,.55-2.9.27S7.67,19.55,6.92,19,5,18.28,4.42,17.51s-.35-1.92-.65-2.83S2.63,13,2.63,12s.86-1.8,1.14-2.68.1-2.08.65-2.83S6.15,5.56,6.92,5,8.2,3.39,9.1,3.09s1.93.27,2.9.27,2-.55,2.9-.27S16.33,4.46,17.08,5s1.94.72,2.5,1.49.35,1.92.65,2.83S21.37,11,21.37,12Z" style="fill: none; stroke: #000000; stroke-linecap: round; stroke-linejoin: round; stroke-width: 2;"/>
</g>
</svg>